<!DOCTYPE svg PUBLIC "-//W3C//DTD SVG 1.1//EN" "http://www.w3.org/Graphics/SVG/1.1/DTD/svg11.dtd">
<!-- Uploaded to: SVG Repo, www.svgrepo.com, Transformed by: SVG Repo Mixer Tools -->
<svg fill="#683C21" width="70px" height="70px" viewBox="0 0 24 24" xmlns="http://www.w3.org/2000/svg" stroke="#683C21" stroke-width="0.00024000000000000003">
<g id="SVGRepo_bgCarrier" stroke-width="0"/>
<g id="SVGRepo_tracerCarrier" stroke-linecap="round" stroke-linejoin="round"/>
<g id="SVGRepo_iconCarrier">
<path d="M3,7C3,4.239,4.791,2,7,2s4,2.239,4,5a4.913,4.913,0,0,1-3,4.823V21a1,1,0,0,1-2,0V11.823A4.913,4.913,0,0,1,3,7ZM19,3V7H18V3a1,1,0,0,0-2,0V7H15V3a1,1,0,0,0-2,0V8a3,3,0,0,0,3,3V21a1,1,0,0,0,2,0V11a3,3,0,0,0,3-3V3a1,1,0,0,0-2,0Z"/>
</g>
</svg>